<svg xmlns="http://www.w3.org/2000/svg" xmlns:xlink="http://www.w3.org/1999/xlink" xmlns:lucid="lucid" width="1729.41" height="700"><g transform="translate(-190.5925925925926 -220)" lucid:page-tab-id="0_0"><path d="M0 0h3677.73v1322.83H0z" fill="#fff"/><path d="M840 580h120v120H840V580z" stroke="#fff" stroke-opacity="0" fill="#693cc5"/><path d="M917.6 678.42c-.35 0-.64-.15-.93-.3-.43-.3-.67-.78-.67-1.3v-73.63c0-.55.3-1.1.77-1.4.48-.3 1.08-.3 1.6-.07l20.8 10.22c.56.23.9.77.9 1.38v56.56c.02.76-.4 1.37-1.1 1.6l-20.8 6.92h-.56zm1.62-72.62v68.78l17.6-5.84v-54.4zM882.4 678.42h-.52l-20.8-6.92c-.67-.23-1.1-.92-1.08-1.6v-56.57c0-.6.33-1.15.9-1.38l20.8-10.22c.52-.23 1.1-.23 1.6.08.48.3.75.85.75 1.4v73.6c0 .54-.24 1-.68 1.3-.28.24-.6.32-.98.32zm-19.2-9.6l17.6 5.83V605.8l-17.6 8.6z" stroke="#fff" stroke-opacity="0" fill="#fff"/><path d="M916 624h-4.8v-3.2h4.8zm-9.6 0h-4.8v-3.2h4.8zm-9.6 0H892v-3.2h4.8zm-9.6 0h-4.8v-3.2h4.8zM916 659.2h-4.8V656h4.8zm-9.6 0h-4.8V656h4.8zm-9.6 0H892V656h4.8zm-9.6 0h-4.8V656h4.8zM892.98 645.5l-6.02-5.13c-.67-.57-.75-1.6-.18-2.26l.18-.17 6-5.13 2.08 2.43-4.58 3.97 4.58 3.92zM907.04 645.5l-2.08-2.42 4.57-3.88-4.6-3.9 2.1-2.5 6 5.12c.68.57.76 1.6.2 2.26-.07.06-.12.12-.2.17z" stroke="#fff" stroke-opacity="0" fill="#fff"/><path d="M895.3 648.87l6.35-18.8 3.04 1.03-6.37 18.8-3.04-1.03z" stroke="#fff" stroke-opacity="0" stroke-width=".32" fill="#fff"/><use xlink:href="#a" transform="matrix(1,0,0,1,810,709) translate(28.30246913580247 17.77777777777778)"/><use xlink:href="#b" transform="matrix(1,0,0,1,810,709) translate(115.89506172839506 17.77777777777778)"/><use xlink:href="#c" transform="matrix(1,0,0,1,810,709) translate(46.2037037037037 44.44444444444444)"/><path d="M318.32 660h-76.64c-.88 0-1.68-.76-1.68-1.7v-5.12c0-18.18 11.92-33.43 29.52-37.7.48-.1.88-.05 1.28.17 5.92 3.2 12.48 3.2 18.4 0 .4-.22.8-.26 1.2-.17 17.68 4.27 29.6 19.52 29.6 37.7v5.13c0 .94-.8 1.7-1.68 1.7zm-74.88-3.43h73.12v-3.4c.08-16.35-10.56-30.07-26.32-34.17-3.36 1.65-6.48 2.4-10.24 2.4s-6.88-.7-10.24-2.4c-15.76 4.1-26.4 17.82-26.32 34.18z" stroke="#fff" stroke-opacity="0" fill="#232f3e"/><path d="M280 621.3c-3.67 0-6.8-.78-10.03-2.56-9.95-5.58-13.5-18.2-7.93-28.17 5.58-9.95 18.17-13.5 28.1-7.93 6.72 3.76 10.56 10.33 10.56 18.05 0 7.76-3.93 14.36-10.74 18.04-3.22 1.73-6.32 2.56-9.95 2.56zm0-37.83c-6.6-.17-12.26 3.18-15.44 8.96-4.5 8.4-1.4 18.8 6.94 23.34 5.4 2.93 11.36 2.93 16.77 0 5.7-3.1 9-8.68 8.96-15.2-.04-9.5-7.76-17.14-17.22-17.1z" stroke="#fff" stroke-opacity="0" fill="#232f3e"/><use xlink:href="#d" transform="matrix(1,0,0,1,210,669) translate(2.5925925925925952 17.77777777777778)"/><use xlink:href="#e" transform="matrix(1,0,0,1,210,669) translate(58.51851851851851 17.77777777777778)"/><use xlink:href="#f" transform="matrix(1,0,0,1,210,669) translate(46.60493827160494 44.44444444444444)"/><path d="M800 246c0-3.3 2.7-6 6-6h1088c3.3 0 6 2.7 6 6v648c0 3.3-2.7 6-6 6H806c-3.3 0-6-2.7-6-6z" stroke="#232f3e" stroke-width="3" fill="#fff" fill-opacity="0"/><path d="M800 240h56v56h-56v-56z" stroke="#fff" stroke-opacity="0" fill="#232f3e"/><path d="M840.88 281.22h-25c-4.13.05-7.57-3.1-7.9-7.2v-.64c-.15-3.4 1.97-6.38 5.25-7.36v-.66c.12-4.22 2.44-7.75 6.24-9.57 4.12-1.86 8.73-.96 11.8 2.3 1.1 1.1 1.85 2.2 2.45 3.6 1.2-1 2.72-1.32 4.24-.9 2.24.8 3.68 2.74 3.76 5.1 3.68.65 6.32 3.8 6.28 7.56 0 7.07-7.04 7.73-7.12 7.76zm-26.7-13.88c-2.83.6-4.75 3.14-4.6 6.04v.53c.3 3.33 3.1 5.84 6.4 5.76h24.98c3.04-.3 5.4-2.64 5.68-5.7.28-3.43-2.24-6.5-5.68-6.78-.44-.05-.72-.44-.64-.87.08-1.83-1-3.44-2.72-4.13-1.32-.37-2.64.13-3.44 1.24-.2.25-.44.38-.76.33-.28-.05-.48-.24-.6-.5-.6-1.6-1.4-2.85-2.6-4.04-2.68-2.8-6.6-3.6-10.13-2-3.24 1.6-5.2 4.63-5.32 8.24-.04.4-.04.74 0 1.14.04.4-.2.76-.6.84z" stroke="#fff" stroke-opacity="0" fill="#fff"/><use xlink:href="#g" transform="matrix(1,0,0,1,871,260) translate(0 14.4)"/><use xlink:href="#h" transform="matrix(1,0,0,1,871,260) translate(45.3 14.4)"/><path d="M1450.58 408.48v-14.66h-5.4v-3.1h14.64v3.1h-5.4v14.66zM1468.22 398.13c1.5 0 2.75.5 3.86 1.47.98.94 1.46 2.14 1.4 3.5.03 1.1-.23 2.07-.83 3-.62.94-1.38 1.6-2.4 2.03-1.24.54-2.38.76-3.7.74-1.77-.02-3.28-.35-4.88-1.05v-2.8c1.6.58 3 .87 4.7.97.95.04 1.75-.18 2.5-.72.62-.55.92-1.25.86-2.07.06-.7-.23-1.33-.78-1.77-.78-.45-1.56-.63-2.47-.56h-1.13l-1.25.1v-2.37l4.6-5h-6.8v-2.87h10.82v2.8z" stroke="#fff" stroke-opacity="0" fill="#d86613"/><path d="M1492.18 432.18h-64.36v-64.36h64.36zm-61.02-3.34h57.68v-57.68h-57.68z" stroke="#fff" stroke-opacity="0" fill="#d86613"/><path d="M1437.02 360h3.33v9.48h-3.33V360zM1447.47 360h3.33v9.48h-3.33V360zM1457.93 360h3.34v9.48h-3.34V360zM1468.4 360h3.33v9.48h-3.33V360zM1478.87 360h3.33v9.48h-3.33V360zM1437.02 430.52h3.33V440h-3.33v-9.48zM1447.47 430.52h3.33V440h-3.33v-9.48zM1457.93 430.52h3.34V440h-3.34v-9.48zM1468.4 430.52h3.33V440h-3.33v-9.48zM1478.87 430.52h3.33V440h-3.33v-9.48zM1490.52 377.42h9.48v3.33h-9.48v-3.33zM1490.52 387.87h9.48v3.33h-9.48v-3.33zM1490.52 398.33h9.48v3.34h-9.48v-3.34zM1490.52 408.8h9.48v3.33h-9.48v-3.33zM1490.52 419.25h9.48v3.33h-9.48v-3.33zM1420 377.42h9.48v3.33H1420v-3.33zM1420 387.87h9.48v3.33H1420v-3.33zM1420 398.33h9.48v3.34H1420v-3.34zM1420 408.8h9.48v3.33H1420v-3.33zM1420 419.25h9.48v3.33H1420v-3.33z" stroke="#fff" stroke-opacity="0" fill="#d86613"/><use xlink:href="#i" transform="matrix(1,0,0,1,1390,449) translate(12.00617283950617 17.77777777777778)"/><use xlink:href="#j" transform="matrix(1,0,0,1,1390,449) translate(44.04320987654321 17.77777777777778)"/><use xlink:href="#k" transform="matrix(1,0,0,1,1390,449) translate(23.05555555555555 44.44444444444444)"/><path d="M1350.58 648.48v-14.66h-5.4v-3.1h14.64v3.1h-5.4v14.66zM1362 632.35c.9-.7 1.74-1.18 2.8-1.56 1.03-.36 1.95-.5 3.04-.5 1.46-.06 2.72.4 3.83 1.36 1.02.96 1.52 2.18 1.47 3.58-.03 1.02-.25 1.9-.74 2.8-.7 1.2-1.4 2.17-2.34 3.2-1.1 1.2-2.53 2.62-4.35 4.28h8.17v2.96h-12.34v-2.76c2.22-2.22 3.86-3.95 4.9-5.17.9-.96 1.57-1.85 2.26-2.96.38-.68.58-1.32.62-2.1.03-.58-.16-1.1-.58-1.5-.46-.4-1-.6-1.6-.56-.88 0-1.64.17-2.46.5-1 .4-1.8.83-2.68 1.47z" stroke="#fff" stroke-opacity="0" fill="#d86613"/><path d="M1392.18 672.18h-64.36v-64.36h64.36zm-61.02-3.34h57.68v-57.68h-57.68z" stroke="#fff" stroke-opacity="0" fill="#d86613"/><path d="M1337.02 600h3.33v9.48h-3.33V600zM1347.47 600h3.33v9.48h-3.33V600zM1357.93 600h3.34v9.48h-3.34V600zM1368.4 600h3.33v9.48h-3.33V600zM1378.87 600h3.33v9.48h-3.33V600zM1337.02 670.52h3.33V680h-3.33v-9.48zM1347.47 670.52h3.33V680h-3.33v-9.48zM1357.93 670.52h3.34V680h-3.34v-9.48zM1368.4 670.52h3.33V680h-3.33v-9.48zM1378.87 670.52h3.33V680h-3.33v-9.48zM1390.52 617.42h9.48v3.33h-9.48v-3.33zM1390.52 627.87h9.48v3.33h-9.48v-3.33zM1390.52 638.33h9.48v3.34h-9.48v-3.34zM1390.52 648.8h9.48v3.33h-9.48v-3.33zM1390.52 659.25h9.48v3.33h-9.48v-3.33zM1320 617.42h9.48v3.33H1320v-3.33zM1320 627.87h9.48v3.33H1320v-3.33zM1320 638.33h9.48v3.34H1320v-3.34zM1320 648.8h9.48v3.33H1320v-3.33zM1320 659.25h9.48v3.33H1320v-3.33z" stroke="#fff" stroke-opacity="0" fill="#d86613"/><use xlink:href="#l" transform="matrix(1,0,0,1,1290,689) translate(12.00617283950617 17.77777777777778)"/><use xlink:href="#j" transform="matrix(1,0,0,1,1290,689) translate(44.04320987654321 17.77777777777778)"/><use xlink:href="#m" transform="matrix(1,0,0,1,1290,689) translate(18.858024691358025 44.44444444444444)"/><path d="M554.82 657.8h-69.7c-2.8 0-5.12-2.28-5.12-5.07v-45.65c0-2.8 2.32-5.08 5.12-5.08h69.7c2.8 0 5.1 2.3 5.1 5.08v45.6c0 2.84-2.23 5.12-5.02 5.12h-.08zm-69.62-52.4c-.96 0-1.76.73-1.76 1.68v45.6c0 .94.8 1.72 1.76 1.72h69.7c.96 0 1.67-.78 1.67-1.73v-45.6c0-.94-.7-1.67-1.67-1.67zM554 680h-68.05c-3.28-.02-5.92-2.65-5.92-5.92v-7.35c0-3.27 2.64-5.94 5.92-5.96H554c3.28 0 6 2.67 6 5.96v7.35c0 3.3-2.72 5.92-6 5.92zm-68.05-15.84c-1.36 0-2.48 1.17-2.48 2.57v7.35c0 1.4 1.12 2.52 2.48 2.54H554c1.44 0 2.56-1.16 2.56-2.58v-7.3c0-1.43-1.12-2.58-2.56-2.58z" stroke="#fff" stroke-opacity="0" fill="#232f3e"/><path d="M551.9 651.45h-63.8c-.95 0-1.7-.78-1.7-1.7V610c0-.92.75-1.7 1.7-1.7h63.8c.95 0 1.7.78 1.7 1.7v39.76c0 .9-.75 1.7-1.7 1.7zm-62.06-3.4h60.32V611.7h-60.32zM532.74 667.13h19.16c1.13 0 1.7.57 1.7 1.7V672c0 1.14-.57 1.7-1.7 1.7h-19.16c-1.12 0-1.7-.56-1.7-1.7v-3.17c0-1.13.58-1.7 1.7-1.7z" stroke="#fff" stroke-opacity="0" fill="#232f3e"/><use xlink:href="#n" transform="matrix(1,0,0,1,450,689) translate(41.69753086419753 17.77777777777778)"/><path d="M618.7 642h-40.27v-2h40.28zm202.8-1h-69.8v-2h69.8zM577.43 645.64L563.17 641l14.26-4.64z" fill="#5e5e5e"/><path d="M578.43 647l-18.5-6 18.5-6zm-12.03-6l10.03 3.26v-6.52zM836.76 640l-14.26 4.64v-9.28z" fill="#5e5e5e"/><path d="M840 640l-18.5 6v-12zm-16.5 3.26l10.03-3.26-10.03-3.26z" fill="#5e5e5e"/><use xlink:href="#o" transform="matrix(1,0,0,1,618.7120607802094,630.3333333333334) translate(0.0049999999999954525 14.222222222222223)"/><use xlink:href="#p" transform="matrix(1,0,0,1,618.7120607802094,630.3333333333334) translate(63.06672839506173 14.222222222222223)"/><path d="M1163.95 664.03H1151c-.65 0-1.26-.38-1.52-.98l-18.14-38.9h-7.32c-.9 0-1.7-.75-1.7-1.68v-11.22c0-.92.8-1.68 1.7-1.68h16.15c.7 0 1.26.38 1.52.98l18.1 38.9h4.15c.9 0 1.68.75 1.68 1.73v11.17c0 .92-.78 1.68-1.68 1.68zm-11.9-3.43h10.16v-7.73h-3.5c-.64 0-1.25-.38-1.5-.98l-18.07-38.96h-13.38v7.8h6.67c.7 0 1.3.37 1.56.97z" stroke="#fff" stroke-opacity="0" fill="#d86613"/><path d="M1128.8 664.03H1115c-.9 0-1.68-.77-1.68-1.7 0-.28.05-.48.17-.72l14.45-30.26c.3-.6.87-.97 1.53-.97.67 0 1.24.33 1.54.94l6.9 14.32c.23.47.23.97 0 1.45l-7.55 16c-.3.6-.87.96-1.54.96zm-11.1-3.4h10.02l6.8-14.27-5.1-10.37z" stroke="#fff" stroke-opacity="0" fill="#d86613"/><path d="M1140 680c-22.08 0-40-17.92-40-40s17.92-40 40-40 40 17.92 40 40-17.92 40-40 40zm0-76.56c-20.24 0-36.56 16.32-36.56 36.56 0 20.24 16.32 36.56 36.56 36.56 20.24 0 36.56-16.32 36.56-36.56 0-20.24-16.32-36.56-36.56-36.56z" stroke="#fff" stroke-opacity="0" fill="#d86613"/><use xlink:href="#q" transform="matrix(1,0,0,1,1070,689) translate(29.907407407407405 17.77777777777778)"/><use xlink:href="#r" transform="matrix(1,0,0,1,1070,689) translate(27.469135802469133 44.44444444444444)"/><path d="M1742.48 510.84l122.47 18.8v11.12c0 16.48-54.87 29.8-122.47 29.8S1620 557.23 1620 540.75V528.7z" fill="#8c3123"/><path d="M1742.54 590.98c51.1 0 94.9-7.7 113.16-18.56l6.08-10.43 2.44-9.6v11.88l-40.16 176.88c0 11.05-36.5 19.8-81.52 19.8-45.02 0-81.53-8.75-81.53-19.8l-40.14-176.88V552.6l9.25 20.24c18.5 10.63 61.82 18.14 112.44 18.14z" fill="#8c3123"/><path d="M1742.5 499c67.6 0 122.48 13.36 122.48 29.74 0 16.4-54.87 29.63-122.48 29.63-67.6 0-122.48-13.12-122.48-29.63 0-16.5 54.87-29.74 122.48-29.74z" fill="#e05243"/><path d="M1742.5 578.94c63.03 0 114.88-11.4 121.7-26.36l-40.17 176.86c0 11.02-36.5 19.87-81.54 19.87-45.04 0-81.55-8.84-81.55-19.86l-40.17-176.86c6.82 14.95 58.67 26.36 121.7 26.36z" fill="#e05243"/><use xlink:href="#s" transform="matrix(1,0,0,1,1620,761) translate(89.78395061728395 17.77777777777778)"/><path d="M978.5 640h103" stroke="#5e5e5e" stroke-width="2" fill="none"/><path d="M963.24 640l14.26-4.64v9.28zM1096.76 640l-14.26 4.64v-9.28z" stroke="#5e5e5e" stroke-width="2" fill="#5e5e5e"/><path d="M1198.5 640h103" stroke="#5e5e5e" stroke-width="2" fill="none"/><path d="M1183.24 640l14.26-4.64v9.28zM1316.76 640l-14.26 4.64v-9.28z" stroke="#5e5e5e" stroke-width="2" fill="#5e5e5e"/><path d="M1418.5 640h201.04" stroke="#5e5e5e" stroke-width="2" fill="none"/><path d="M1403.24 640l14.26-4.64v9.28zM1634.8 640l-14.26 4.64v-9.28z" stroke="#5e5e5e" stroke-width="2" fill="#5e5e5e"/><path d="M1501 400h55.8c3.3 0 6 2.7 6 6v173.13c0 3.3 2.68 6 6 6h38.3" stroke="#5e5e5e" stroke-width="2" fill="none"/><path d="M1501.03 401H1500v-2h1.03z" fill="#5e5e5e"/><path d="M1622.35 585.13l-14.26 4.63v-9.27z" stroke="#5e5e5e" stroke-width="2" fill="#5e5e5e"/><path d="M1419 400h-53c-3.3 0-6 2.7-6 6v175.5" stroke="#5e5e5e" stroke-width="2" fill="none"/><path d="M1420 401h-1.03v-2h1.03z" fill="#5e5e5e"/><path d="M1360 596.76l-4.64-14.26h9.28z" stroke="#5e5e5e" stroke-width="2" fill="#5e5e5e"/><path d="M461.5 641H319.05" stroke="#5e5e5e" stroke-width="2" fill="none"/><path d="M476.76 641l-14.26 4.64v-9.28z" stroke="#5e5e5e" stroke-width="2" fill="#5e5e5e"/><path d="M319.07 642h-.67l-.7-2h1.37z" fill="#5e5e5e"/><g class="lucid-layer" lucid:layer-id="iltXh3P1EDHS" display="block"><path d="M1794.9 629.82c0-.84-.43-1.58-1.16-2l-11.44-6.4v-14.8c-.1-.74-.42-1.48-1.16-1.9l-24.47-14.8c-.73-.42-1.57-.42-2.3 0l-11.97 7.04-11.87-7.14c-.63-.43-1.47-.43-2.2 0l-24.68 14.9c-.74.42-1.16 1.16-1.16 1.9v14.8l-11.35 6.4c-.73.42-1.15 1.16-1.15 2v24.36c0 .84.42 1.58 1.15 2l11.34 6.4v14.7c0 .84.4 1.58 1.15 2l24.57 14.9c.32.22.73.32 1.15.32.43 0 .85-.1 1.16-.32l11.87-7.13 11.86 7.13c.42.22.84.32 1.26.32.42 0 .84-.1 1.15-.32l24.57-14.9c.74-.42 1.16-1.05 1.16-1.9v-14.7l11.44-6.4c.74-.42 1.16-1.15 1.16-2v-24.46zm-54.7 53.34l-10.83 6.3-22.25-13.44v-14.8c0-.85-.42-1.58-1.16-2l-4.1-2.2h11.77v17.1c0 1.27.94 2.32 2.2 2.32h7.56c.62 1.57 1.77 2.73 3.45 3.36 3.16 1.26 6.83-.2 8.1-3.36 1.25-3.15-.33-6.72-3.48-7.98-3.25-1.26-6.82.2-8.08 3.36h-5.26V654.7c0-1.25-.95-2.3-2.3-2.3h-21.22v-21.32l11.45-6.4c.73-.42 1.15-1.05 1.15-1.9v-5.45h3.46v11.75c-1.67.74-2.83 1.8-3.46 3.47-1.26 3.15.32 6.72 3.46 7.98 3.15 1.26 6.83-.3 8.1-3.46 1.25-3.16-.33-6.73-3.47-8v-11.75h6c.62 1.58 1.88 2.73 3.46 3.36 3.14 1.27 6.82-.2 8.08-3.35 1.26-3.16-.3-6.73-3.46-8-3.16-1.25-6.83.33-8.1 3.48h-14.16V608l22.26-13.44 10.8 6.3v27.2h-12.9c-1.26 0-2.32 1.05-2.32 2.3v16.07c-1.67.64-2.83 1.8-3.46 3.37-1.26 3.15.32 6.72 3.46 7.98 3.15 1.26 6.83-.32 8.1-3.47 1.25-3.14-.33-6.7-3.47-7.87v-13.85h10.6v9.56zm-12.6-9.13c-.12-.85.52-1.68 1.36-1.8.84-.1 1.67.53 1.78 1.48v.32c.1.85-.53 1.7-1.37 1.8-.94.1-1.67-.54-1.78-1.38v-.42zm-13.13-39.27c0 .94-.63 1.67-1.58 1.67-.85 0-1.6-.73-1.6-1.57.02-.95.64-1.58 1.6-1.68.83 0 1.56.74 1.56 1.58zm10.9-19.75h.02c-.12-.83.5-1.66 1.35-1.77.94-.1 1.68.52 1.8 1.47v.3c.1.96-.54 1.7-1.38 1.8-.84.1-1.68-.52-1.8-1.37.02-.1.02-.3.02-.4zm3.48 37.08c0 .84-.73 1.57-1.57 1.57-.95 0-1.58-.73-1.58-1.57 0-.95.63-1.68 1.58-1.68.84 0 1.57.74 1.57 1.68zm50.1 7.14h-.02c-.73.42-1.15 1.15-1.15 2V676l-19.63 11.87v-16.3h4.4c.63 1.7 1.8 2.85 3.47 3.48 3.15 1.25 6.72-.32 7.98-3.47 1.26-3.03-.2-6.6-3.46-7.87-3.15-1.25-6.72.2-7.98 3.37h-6.72c-1.26 0-2.3 1.04-2.3 2.3v18.9l-8.84-5.14V622.7h7.04v5.25c-1.58.63-2.73 1.8-3.46 3.47-1.26 3.14.3 6.72 3.46 7.98 3.25 1.15 6.83-.32 8.1-3.47 1.25-3.14-.33-6.7-3.48-7.97v-5.25h7.25c1.27 0 2.32-.94 2.32-2.2v-4.52c1.67-.74 2.83-1.8 3.46-3.47 1.26-3.15-.32-6.73-3.47-8-3.13-1.25-6.8.33-8.07 3.48-1.26 3.15.32 6.72 3.47 7.98v2.2h-16.6v-17.32l10.82-6.3 22.26 13.44v14.8c0 .85.42 1.58 1.15 2l11.45 6.3v7.66h-22.05c-1.26 0-2.3 1.05-2.3 2.3v11.36h-5.58c-.94-2.42-3.14-3.9-5.77-3.9-2.63 0-4.83 1.48-5.78 3.9-1.26 3.14.32 6.72 3.47 7.98 3.15 1.25 6.83-.32 8.1-3.47h7.75c1.37 0 2.32-1.04 2.32-2.3v-11.34h19.74v9.66zm-12.3 10.18c0-.94.73-1.57 1.57-1.57.95 0 1.68.63 1.68 1.57 0 .85-.73 1.58-1.68 1.58-.84 0-1.57-.74-1.57-1.58zm-10.92-35.8c0 .94-.74 1.57-1.68 1.57-.84 0-1.58-.63-1.58-1.57 0-.84.74-1.58 1.58-1.58.94 0 1.68.74 1.68 1.58zm6.3-23.42c0-.83.74-1.57 1.58-1.57.95 0 1.58.75 1.58 1.58 0 .95-.63 1.7-1.58 1.7-.83 0-1.57-.75-1.57-1.7zm-5.77 44.53c0 .84-.74 1.58-1.68 1.58-.85 0-1.58-.74-1.58-1.57 0-.84.73-1.57 1.58-1.57.94 0 1.68.74 1.68 1.58z" stroke="#fff" stroke-opacity="0" fill="#1c7b68"/><use xlink:href="#t" transform="matrix(1,0,0,1,1660,703.5) translate(52.31481481481482 17.77777777777778)"/></g><defs><path fill="#333" d="M205 0l-28-72H64L36 0H1l101-248h38L239 0h-34zm-38-99l-47-123c-12 45-31 82-46 123h93" id="u"/><path fill="#333" d="M210-169c-67 3-38 105-44 169h-31v-121c0-29-5-50-35-48C34-165 62-65 56 0H25l-1-190h30c1 10-1 24 2 32 10-44 99-50 107 0 11-21 27-35 58-36 85-2 47 119 55 194h-31v-121c0-29-5-49-35-48" id="v"/><path fill="#333" d="M141-36C126-15 110 5 73 4 37 3 15-17 15-53c-1-64 63-63 125-63 3-35-9-54-41-54-24 1-41 7-42 31l-33-3c5-37 33-52 76-52 45 0 72 20 72 64v82c-1 20 7 32 28 27v20c-31 9-61-2-59-35zM48-53c0 20 12 33 32 33 41-3 63-29 60-74-43 2-92-5-92 41" id="w"/><path fill="#333" d="M9 0v-24l116-142H16v-24h144v24L44-24h123V0H9" id="x"/><path fill="#333" d="M100-194c62-1 85 37 85 99 1 63-27 99-86 99S16-35 15-95c0-66 28-99 85-99zM99-20c44 1 53-31 53-75 0-43-8-75-51-75s-53 32-53 75 10 74 51 75" id="y"/><path fill="#333" d="M117-194c89-4 53 116 60 194h-32v-121c0-31-8-49-39-48C34-167 62-67 57 0H25l-1-190h30c1 10-1 24 2 32 11-22 29-35 61-36" id="z"/><g id="a"><use transform="matrix(0.06172839506172839,0,0,0.06172839506172839,0,0)" xlink:href="#u"/><use transform="matrix(0.06172839506172839,0,0,0.06172839506172839,14.814814814814813,0)" xlink:href="#v"/><use transform="matrix(0.06172839506172839,0,0,0.06172839506172839,33.2716049382716,0)" xlink:href="#w"/><use transform="matrix(0.06172839506172839,0,0,0.06172839506172839,45.61728395061728,0)" xlink:href="#x"/><use transform="matrix(0.06172839506172839,0,0,0.06172839506172839,56.72839506172839,0)" xlink:href="#y"/><use transform="matrix(0.06172839506172839,0,0,0.06172839506172839,69.07407407407408,0)" xlink:href="#z"/></g><path fill="#333" d="M30-248c87 1 191-15 191 75 0 78-77 80-158 76V0H30v-248zm33 125c57 0 124 11 124-50 0-59-68-47-124-48v98" id="A"/><path fill="#333" d="M33 0v-248h34V0H33" id="B"/><g id="b"><use transform="matrix(0.06172839506172839,0,0,0.06172839506172839,0,0)" xlink:href="#u"/><use transform="matrix(0.06172839506172839,0,0,0.06172839506172839,14.814814814814813,0)" xlink:href="#A"/><use transform="matrix(0.06172839506172839,0,0,0.06172839506172839,29.629629629629626,0)" xlink:href="#B"/></g><path fill="#333" d="M143 4C61 4 22-44 18-125c-5-107 100-154 193-111 17 8 29 25 37 43l-32 9c-13-25-37-40-76-40-61 0-88 39-88 99 0 61 29 100 91 101 35 0 62-11 79-27v-45h-74v-28h105v86C228-13 192 4 143 4" id="C"/><path fill="#333" d="M59-47c-2 24 18 29 38 22v24C64 9 27 4 27-40v-127H5v-23h24l9-43h21v43h35v23H59v120" id="D"/><path fill="#333" d="M100-194c63 0 86 42 84 106H49c0 40 14 67 53 68 26 1 43-12 49-29l28 8c-11 28-37 45-77 45C44 4 14-33 15-96c1-61 26-98 85-98zm52 81c6-60-76-77-97-28-3 7-6 17-6 28h103" id="E"/><path fill="#333" d="M206 0h-36l-40-164L89 0H53L-1-190h32L70-26l43-164h34l41 164 42-164h31" id="F"/><path fill="#333" d="M179-190L93 31C79 59 56 82 12 73V49c39 6 53-20 64-50L1-190h34L92-34l54-156h33" id="G"/><g id="c"><use transform="matrix(0.06172839506172839,0,0,0.06172839506172839,0,0)" xlink:href="#C"/><use transform="matrix(0.06172839506172839,0,0,0.06172839506172839,17.28395061728395,0)" xlink:href="#w"/><use transform="matrix(0.06172839506172839,0,0,0.06172839506172839,29.629629629629626,0)" xlink:href="#D"/><use transform="matrix(0.06172839506172839,0,0,0.06172839506172839,35.80246913580247,0)" xlink:href="#E"/><use transform="matrix(0.06172839506172839,0,0,0.06172839506172839,48.148148148148145,0)" xlink:href="#F"/><use transform="matrix(0.06172839506172839,0,0,0.06172839506172839,64.1358024691358,0)" xlink:href="#w"/><use transform="matrix(0.06172839506172839,0,0,0.06172839506172839,76.48148148148148,0)" xlink:href="#G"/></g><path fill="#333" d="M266 0h-40l-56-210L115 0H75L2-248h35L96-30l15-64 43-154h32l59 218 59-218h35" id="H"/><path fill="#333" d="M185-189c-5-48-123-54-124 2 14 75 158 14 163 119 3 78-121 87-175 55-17-10-28-26-33-46l33-7c5 56 141 63 141-1 0-78-155-14-162-118-5-82 145-84 179-34 5 7 8 16 11 25" id="I"/><g id="d"><use transform="matrix(0.06172839506172839,0,0,0.06172839506172839,0,0)" xlink:href="#u"/><use transform="matrix(0.06172839506172839,0,0,0.06172839506172839,14.012345679012345,0)" xlink:href="#H"/><use transform="matrix(0.06172839506172839,0,0,0.06172839506172839,34.938271604938265,0)" xlink:href="#I"/></g><path fill="#333" d="M114-163C36-179 61-72 57 0H25l-1-190h30c1 12-1 29 2 39 6-27 23-49 58-41v29" id="J"/><path fill="#333" d="M24 0v-261h32V0H24" id="K"/><g id="e"><use transform="matrix(0.06172839506172839,0,0,0.06172839506172839,0,0)" xlink:href="#C"/><use transform="matrix(0.06172839506172839,0,0,0.06172839506172839,17.28395061728395,0)" xlink:href="#E"/><use transform="matrix(0.06172839506172839,0,0,0.06172839506172839,29.629629629629626,0)" xlink:href="#z"/><use transform="matrix(0.06172839506172839,0,0,0.06172839506172839,41.9753086419753,0)" xlink:href="#E"/><use transform="matrix(0.06172839506172839,0,0,0.06172839506172839,54.32098765432098,0)" xlink:href="#J"/><use transform="matrix(0.06172839506172839,0,0,0.06172839506172839,61.66666666666666,0)" xlink:href="#w"/><use transform="matrix(0.06172839506172839,0,0,0.06172839506172839,74.01234567901234,0)" xlink:href="#K"/></g><path fill="#333" d="M232-93c-1 65-40 97-104 97C67 4 28-28 28-90v-158h33c8 89-33 224 67 224 102 0 64-133 71-224h33v155" id="L"/><path fill="#333" d="M135-143c-3-34-86-38-87 0 15 53 115 12 119 90S17 21 10-45l28-5c4 36 97 45 98 0-10-56-113-15-118-90-4-57 82-63 122-42 12 7 21 19 24 35" id="M"/><g id="f"><use transform="matrix(0.06172839506172839,0,0,0.06172839506172839,0,0)" xlink:href="#L"/><use transform="matrix(0.06172839506172839,0,0,0.06172839506172839,15.987654320987653,0)" xlink:href="#M"/><use transform="matrix(0.06172839506172839,0,0,0.06172839506172839,27.098765432098766,0)" xlink:href="#E"/><use transform="matrix(0.06172839506172839,0,0,0.06172839506172839,39.44444444444444,0)" xlink:href="#J"/></g><path fill="#232f3e" d="M205 0l-28-72H64L36 0H1l101-248h38L239 0h-34zm-38-99l-47-123c-12 45-31 82-46 123h93" id="N"/><path fill="#232f3e" d="M266 0h-40l-56-210L115 0H75L2-248h35L96-30l15-64 43-154h32l59 218 59-218h35" id="O"/><path fill="#232f3e" d="M185-189c-5-48-123-54-124 2 14 75 158 14 163 119 3 78-121 87-175 55-17-10-28-26-33-46l33-7c5 56 141 63 141-1 0-78-155-14-162-118-5-82 145-84 179-34 5 7 8 16 11 25" id="P"/><g id="g"><use transform="matrix(0.05,0,0,0.05,0,0)" xlink:href="#N"/><use transform="matrix(0.05,0,0,0.05,11.35,0)" xlink:href="#O"/><use transform="matrix(0.05,0,0,0.05,28.299999999999997,0)" xlink:href="#P"/></g><path fill="#232f3e" d="M212-179c-10-28-35-45-73-45-59 0-87 40-87 99 0 60 29 101 89 101 43 0 62-24 78-52l27 14C228-24 195 4 139 4 59 4 22-46 18-125c-6-104 99-153 187-111 19 9 31 26 39 46" id="Q"/><path fill="#232f3e" d="M24 0v-261h32V0H24" id="R"/><path fill="#232f3e" d="M100-194c62-1 85 37 85 99 1 63-27 99-86 99S16-35 15-95c0-66 28-99 85-99zM99-20c44 1 53-31 53-75 0-43-8-75-51-75s-53 32-53 75 10 74 51 75" id="S"/><path fill="#232f3e" d="M84 4C-5 8 30-112 23-190h32v120c0 31 7 50 39 49 72-2 45-101 50-169h31l1 190h-30c-1-10 1-25-2-33-11 22-28 36-60 37" id="T"/><path fill="#232f3e" d="M85-194c31 0 48 13 60 33l-1-100h32l1 261h-30c-2-10 0-23-3-31C134-8 116 4 85 4 32 4 16-35 15-94c0-66 23-100 70-100zm9 24c-40 0-46 34-46 75 0 40 6 74 45 74 42 0 51-32 51-76 0-42-9-74-50-73" id="U"/><g id="h"><use transform="matrix(0.05,0,0,0.05,0,0)" xlink:href="#Q"/><use transform="matrix(0.05,0,0,0.05,12.950000000000001,0)" xlink:href="#R"/><use transform="matrix(0.05,0,0,0.05,16.900000000000002,0)" xlink:href="#S"/><use transform="matrix(0.05,0,0,0.05,26.900000000000002,0)" xlink:href="#T"/><use transform="matrix(0.05,0,0,0.05,36.900000000000006,0)" xlink:href="#U"/></g><path fill="#333" d="M127-220V0H93v-220H8v-28h204v28h-85" id="V"/><path fill="#333" d="M126-127c33 6 58 20 58 59 0 88-139 92-164 29-3-8-5-16-6-25l32-3c6 27 21 44 54 44 32 0 52-15 52-46 0-38-36-46-79-43v-28c39 1 72-4 72-42 0-27-17-43-46-43-28 0-47 15-49 41l-32-3c6-42 35-63 81-64 48-1 79 21 79 65 0 36-21 52-52 59" id="W"/><g id="i"><use transform="matrix(0.06172839506172839,0,0,0.06172839506172839,0,0)" xlink:href="#V"/><use transform="matrix(0.06172839506172839,0,0,0.06172839506172839,13.518518518518517,0)" xlink:href="#W"/></g><path fill="#333" d="M96-169c-40 0-48 33-48 73s9 75 48 75c24 0 41-14 43-38l32 2c-6 37-31 61-74 61-59 0-76-41-82-99-10-93 101-131 147-64 4 7 5 14 7 22l-32 3c-4-21-16-35-41-35" id="X"/><g id="j"><use transform="matrix(0.06172839506172839,0,0,0.06172839506172839,0,0)" xlink:href="#B"/><use transform="matrix(0.06172839506172839,0,0,0.06172839506172839,6.172839506172839,0)" xlink:href="#z"/><use transform="matrix(0.06172839506172839,0,0,0.06172839506172839,18.51851851851852,0)" xlink:href="#M"/><use transform="matrix(0.06172839506172839,0,0,0.06172839506172839,29.62962962962963,0)" xlink:href="#D"/><use transform="matrix(0.06172839506172839,0,0,0.06172839506172839,35.80246913580247,0)" xlink:href="#w"/><use transform="matrix(0.06172839506172839,0,0,0.06172839506172839,48.148148148148145,0)" xlink:href="#z"/><use transform="matrix(0.06172839506172839,0,0,0.06172839506172839,60.49382716049382,0)" xlink:href="#X"/><use transform="matrix(0.06172839506172839,0,0,0.06172839506172839,71.60493827160494,0)" xlink:href="#E"/></g><path fill="#333" d="M87 75C49 33 22-17 22-94c0-76 28-126 65-167h31c-38 41-64 92-64 168S80 34 118 75H87" id="Y"/><path fill="#333" d="M24-231v-30h32v30H24zM24 0v-190h32V0H24" id="Z"/><path fill="#333" d="M177-190C167-65 218 103 67 71c-23-6-38-20-44-43l32-5c15 47 100 32 89-28v-30C133-14 115 1 83 1 29 1 15-40 15-95c0-56 16-97 71-98 29-1 48 16 59 35 1-10 0-23 2-32h30zM94-22c36 0 50-32 50-73 0-42-14-75-50-75-39 0-46 34-46 75s6 73 46 73" id="aa"/><path fill="#333" d="M33-261c38 41 65 92 65 168S71 34 33 75H2C39 34 66-17 66-93S39-220 2-261h31" id="ab"/><g id="k"><use transform="matrix(0.06172839506172839,0,0,0.06172839506172839,0,0)" xlink:href="#Y"/><use transform="matrix(0.06172839506172839,0,0,0.06172839506172839,7.345679012345679,0)" xlink:href="#V"/><use transform="matrix(0.06172839506172839,0,0,0.06172839506172839,20.061728395061728,0)" xlink:href="#J"/><use transform="matrix(0.06172839506172839,0,0,0.06172839506172839,27.407407407407405,0)" xlink:href="#w"/><use transform="matrix(0.06172839506172839,0,0,0.06172839506172839,39.75308641975308,0)" xlink:href="#Z"/><use transform="matrix(0.06172839506172839,0,0,0.06172839506172839,44.629629629629626,0)" xlink:href="#z"/><use transform="matrix(0.06172839506172839,0,0,0.06172839506172839,56.9753086419753,0)" xlink:href="#Z"/><use transform="matrix(0.06172839506172839,0,0,0.06172839506172839,61.85185185185185,0)" xlink:href="#z"/><use transform="matrix(0.06172839506172839,0,0,0.06172839506172839,74.19753086419753,0)" xlink:href="#aa"/><use transform="matrix(0.06172839506172839,0,0,0.06172839506172839,86.54320987654322,0)" xlink:href="#ab"/></g><path fill="#333" d="M101-251c82-7 93 87 43 132L82-64C71-53 59-42 53-27h129V0H18c2-99 128-94 128-182 0-28-16-43-45-43s-46 15-49 41l-32-3c6-41 34-60 81-64" id="ac"/><g id="l"><use transform="matrix(0.06172839506172839,0,0,0.06172839506172839,0,0)" xlink:href="#V"/><use transform="matrix(0.06172839506172839,0,0,0.06172839506172839,13.518518518518517,0)" xlink:href="#ac"/></g><path fill="#333" d="M30 0v-248h187v28H63v79h144v27H63v87h162V0H30" id="ad"/><path fill="#333" d="M85-194c31 0 48 13 60 33l-1-100h32l1 261h-30c-2-10 0-23-3-31C134-8 116 4 85 4 32 4 16-35 15-94c0-66 23-100 70-100zm9 24c-40 0-46 34-46 75 0 40 6 74 45 74 42 0 51-32 51-76 0-42-9-74-50-73" id="ae"/><path fill="#333" d="M115-194c55 1 70 41 70 98S169 2 115 4C84 4 66-9 55-30l1 105H24l-1-265h31l2 30c10-21 28-34 59-34zm-8 174c40 0 45-34 45-75s-6-73-45-74c-42 0-51 32-51 76 0 43 10 73 51 73" id="af"/><g id="m"><use transform="matrix(0.06172839506172839,0,0,0.06172839506172839,0,0)" xlink:href="#Y"/><use transform="matrix(0.06172839506172839,0,0,0.06172839506172839,7.345679012345679,0)" xlink:href="#ad"/><use transform="matrix(0.06172839506172839,0,0,0.06172839506172839,22.160493827160494,0)" xlink:href="#z"/><use transform="matrix(0.06172839506172839,0,0,0.06172839506172839,34.50617283950617,0)" xlink:href="#ae"/><use transform="matrix(0.06172839506172839,0,0,0.06172839506172839,46.85185185185185,0)" xlink:href="#af"/><use transform="matrix(0.06172839506172839,0,0,0.06172839506172839,59.197530864197525,0)" xlink:href="#y"/><use transform="matrix(0.06172839506172839,0,0,0.06172839506172839,71.5432098765432,0)" xlink:href="#Z"/><use transform="matrix(0.06172839506172839,0,0,0.06172839506172839,76.41975308641975,0)" xlink:href="#z"/><use transform="matrix(0.06172839506172839,0,0,0.06172839506172839,88.76543209876543,0)" xlink:href="#D"/><use transform="matrix(0.06172839506172839,0,0,0.06172839506172839,94.93827160493827,0)" xlink:href="#ab"/></g><path fill="#333" d="M212-179c-10-28-35-45-73-45-59 0-87 40-87 99 0 60 29 101 89 101 43 0 62-24 78-52l27 14C228-24 195 4 139 4 59 4 22-46 18-125c-6-104 99-153 187-111 19 9 31 26 39 46" id="ag"/><g id="n"><use transform="matrix(0.06172839506172839,0,0,0.06172839506172839,0,0)" xlink:href="#ag"/><use transform="matrix(0.06172839506172839,0,0,0.06172839506172839,15.987654320987653,0)" xlink:href="#K"/><use transform="matrix(0.06172839506172839,0,0,0.06172839506172839,20.864197530864196,0)" xlink:href="#Z"/><use transform="matrix(0.06172839506172839,0,0,0.06172839506172839,25.74074074074074,0)" xlink:href="#E"/><use transform="matrix(0.06172839506172839,0,0,0.06172839506172839,38.08641975308642,0)" xlink:href="#z"/><use transform="matrix(0.06172839506172839,0,0,0.06172839506172839,50.432098765432094,0)" xlink:href="#D"/></g><path fill="#333" d="M186 0v-106H76V0H24v-248h52v99h110v-99h50V0h-50" id="ah"/><path fill="#333" d="M136-208V0H84v-208H4v-40h212v40h-80" id="ai"/><path fill="#333" d="M24-248c93 1 206-16 204 79-1 75-69 88-152 82V0H24v-248zm52 121c47 0 100 7 100-41 0-47-54-39-100-39v80" id="aj"/><path fill="#333" d="M169-182c-1-43-94-46-97-3 18 66 151 10 154 114 3 95-165 93-204 36-6-8-10-19-12-30l50-8c3 46 112 56 116 5-17-69-150-10-154-114-4-87 153-88 188-35 5 8 8 18 10 28" id="ak"/><g id="o"><use transform="matrix(0.04938271604938272,0,0,0.04938271604938272,0,0)" xlink:href="#ah"/><use transform="matrix(0.04938271604938272,0,0,0.04938271604938272,12.790123456790125,0)" xlink:href="#ai"/><use transform="matrix(0.04938271604938272,0,0,0.04938271604938272,23.60493827160494,0)" xlink:href="#ai"/><use transform="matrix(0.04938271604938272,0,0,0.04938271604938272,34.41975308641975,0)" xlink:href="#aj"/><use transform="matrix(0.04938271604938272,0,0,0.04938271604938272,46.27160493827161,0)" xlink:href="#ak"/></g><path fill="#333" d="M240-174c0 40-23 61-54 70L253 0h-59l-57-94H76V0H24v-248c93 4 217-23 216 74zM76-134c48-2 112 12 112-38 0-48-66-32-112-35v73" id="al"/><path fill="#333" d="M185-48c-13 30-37 53-82 52C43 2 14-33 14-96s30-98 90-98c62 0 83 45 84 108H66c0 31 8 55 39 56 18 0 30-7 34-22zm-45-69c5-46-57-63-70-21-2 6-4 13-4 21h74" id="am"/><path fill="#333" d="M84 4C32 4 15-41 15-95c0-55 18-99 73-99 29 0 47 12 58 34l2-30h48l-1 265h-49V-32C136-9 114 4 84 4zm21-34c32 0 41-29 41-66 0-36-9-64-40-64-33 0-39 30-40 65 0 43 13 65 39 65" id="an"/><path fill="#333" d="M85 4C-2 5 27-109 22-190h50c7 57-23 150 33 157 60-5 35-97 40-157h50l1 190h-47c-2-12 1-28-3-38-12 25-28 42-61 42" id="ao"/><path fill="#333" d="M137-138c1-29-70-34-71-4 15 46 118 7 119 86 1 83-164 76-172 9l43-7c4 19 20 25 44 25 33 8 57-30 24-41C81-84 22-81 20-136c-2-80 154-74 161-7" id="ap"/><path fill="#333" d="M115-3C79 11 28 4 28-45v-112H4v-33h27l15-45h31v45h36v33H77v99c-1 23 16 31 38 25v30" id="aq"/><g id="p"><use transform="matrix(0.04938271604938272,0,0,0.04938271604938272,0,0)" xlink:href="#al"/><use transform="matrix(0.04938271604938272,0,0,0.04938271604938272,12.790123456790125,0)" xlink:href="#am"/><use transform="matrix(0.04938271604938272,0,0,0.04938271604938272,22.66666666666667,0)" xlink:href="#an"/><use transform="matrix(0.04938271604938272,0,0,0.04938271604938272,33.48148148148149,0)" xlink:href="#ao"/><use transform="matrix(0.04938271604938272,0,0,0.04938271604938272,44.296296296296305,0)" xlink:href="#am"/><use transform="matrix(0.04938271604938272,0,0,0.04938271604938272,54.17283950617284,0)" xlink:href="#ap"/><use transform="matrix(0.04938271604938272,0,0,0.04938271604938272,64.0493827160494,0)" xlink:href="#aq"/></g><path fill="#333" d="M30 0v-248h33v221h125V0H30" id="ar"/><path fill="#333" d="M115-194c53 0 69 39 70 98 0 66-23 100-70 100C84 3 66-7 56-30L54 0H23l1-261h32v101c10-23 28-34 59-34zm-8 174c40 0 45-34 45-75 0-40-5-75-45-74-42 0-51 32-51 76 0 43 10 73 51 73" id="as"/><g id="q"><use transform="matrix(0.06172839506172839,0,0,0.06172839506172839,0,0)" xlink:href="#ar"/><use transform="matrix(0.06172839506172839,0,0,0.06172839506172839,12.345679012345679,0)" xlink:href="#w"/><use transform="matrix(0.06172839506172839,0,0,0.06172839506172839,24.691358024691358,0)" xlink:href="#v"/><use transform="matrix(0.06172839506172839,0,0,0.06172839506172839,43.148148148148145,0)" xlink:href="#as"/><use transform="matrix(0.06172839506172839,0,0,0.06172839506172839,55.49382716049382,0)" xlink:href="#ae"/><use transform="matrix(0.06172839506172839,0,0,0.06172839506172839,67.8395061728395,0)" xlink:href="#w"/></g><path fill="#333" d="M63-220v92h138v28H63V0H30v-248h175v28H63" id="at"/><path fill="#333" d="M84 4C-5 8 30-112 23-190h32v120c0 31 7 50 39 49 72-2 45-101 50-169h31l1 190h-30c-1-10 1-25-2-33-11 22-28 36-60 37" id="au"/><g id="r"><use transform="matrix(0.06172839506172839,0,0,0.06172839506172839,0,0)" xlink:href="#at"/><use transform="matrix(0.06172839506172839,0,0,0.06172839506172839,13.518518518518517,0)" xlink:href="#au"/><use transform="matrix(0.06172839506172839,0,0,0.06172839506172839,25.864197530864196,0)" xlink:href="#z"/><use transform="matrix(0.06172839506172839,0,0,0.06172839506172839,38.20987654320987,0)" xlink:href="#X"/><use transform="matrix(0.06172839506172839,0,0,0.06172839506172839,49.32098765432099,0)" xlink:href="#D"/><use transform="matrix(0.06172839506172839,0,0,0.06172839506172839,55.49382716049383,0)" xlink:href="#Z"/><use transform="matrix(0.06172839506172839,0,0,0.06172839506172839,60.370370370370374,0)" xlink:href="#y"/><use transform="matrix(0.06172839506172839,0,0,0.06172839506172839,72.71604938271605,0)" xlink:href="#z"/></g><path fill="#333" d="M143 0L79-87 56-68V0H24v-261h32v163l83-92h37l-77 82L181 0h-38" id="av"/><g id="s"><use transform="matrix(0.06172839506172839,0,0,0.06172839506172839,0,0)" xlink:href="#as"/><use transform="matrix(0.06172839506172839,0,0,0.06172839506172839,12.345679012345679,0)" xlink:href="#au"/><use transform="matrix(0.06172839506172839,0,0,0.06172839506172839,24.691358024691358,0)" xlink:href="#X"/><use transform="matrix(0.06172839506172839,0,0,0.06172839506172839,35.80246913580247,0)" xlink:href="#av"/><use transform="matrix(0.06172839506172839,0,0,0.06172839506172839,46.91358024691358,0)" xlink:href="#E"/><use transform="matrix(0.06172839506172839,0,0,0.06172839506172839,59.25925925925926,0)" xlink:href="#D"/></g><path fill="#333" d="M240 0l2-218c-23 76-54 145-80 218h-23L58-218 59 0H30v-248h44l77 211c21-75 51-140 76-211h43V0h-30" id="aw"/><g id="t"><use transform="matrix(0.06172839506172839,0,0,0.06172839506172839,0,0)" xlink:href="#aw"/><use transform="matrix(0.06172839506172839,0,0,0.06172839506172839,18.456790123456788,0)" xlink:href="#y"/><use transform="matrix(0.06172839506172839,0,0,0.06172839506172839,30.80246913580247,0)" xlink:href="#ae"/><use transform="matrix(0.06172839506172839,0,0,0.06172839506172839,43.148148148148145,0)" xlink:href="#E"/><use transform="matrix(0.06172839506172839,0,0,0.06172839506172839,55.49382716049382,0)" xlink:href="#K"/></g></defs></g></svg>